<svg width="1440" height="444" viewBox="0 0 1440 444" fill="none" xmlns="http://www.w3.org/2000/svg">
<path d="M893.585 -722.31C1031.66 -659.135 1027.21 -492.396 1092.17 -319.514C1155.54 -146.686 1288.33 32.2837 1215.72 165.579C1144.65 299.871 868.197 388.488 586.414 420.349C304.675 451.27 19.1899 425.489 -271.202 368.425C-560.055 312.357 -853.814 225.006 -930.152 93.2222C-1004.91 -38.507 -863.781 -215.664 -692.714 -320.138C-521.604 -425.554 -318.93 -459.175 -164.502 -511.416C-11.6557 -563.711 94.5254 -634.573 285.495 -689.337C478.089 -744.989 755.515 -785.485 893.585 -722.31Z" fill="#ADF2D1"/>
<path d="M1202.32 -703.122C1337.37 -633.725 1325.34 -467.361 1382.36 -291.701C1437.8 -116.166 1562.29 68.6648 1483.69 198.516C1406.58 329.431 1126.38 405.367 843.437 424.363C560.582 442.421 276.567 403.667 -10.9247 333.438C-296.925 264.273 -586.402 163.635 -656.659 28.5122C-725.339 -106.485 -576.291 -277.031 -400.643 -373.607C-224.91 -471.121 -20.9152 -495.477 135.731 -540.632C290.801 -585.912 400.099 -651.864 593.364 -697.875C788.293 -744.699 1067.27 -772.52 1202.32 -703.122Z" fill="#7F73EF"/>
<path d="M1194.26 -763.552C1336.67 -710.897 1344.73 -544.293 1422.45 -376.763C1498.6 -209.168 1644.41 -40.6477 1582 97.7123C1521.19 236.95 1252.15 346.027 973.545 398.907C694.913 450.845 408.299 446.522 114.449 411.372C-177.793 377.098 -477.27 311.998 -563.265 186.303C-647.679 60.5438 -520.219 -126.687 -357.459 -243.682C-194.726 -361.62 4.86006 -410.328 154.941 -473.991C303.44 -537.588 404.015 -616.204 590.346 -685.12C778.23 -755.043 1051.84 -816.207 1194.26 -763.552Z" fill="#0D9BFC"/>
</svg>
