<svg width="80" height="80" viewBox="0 0 80 80" fill="none" xmlns="http://www.w3.org/2000/svg">
<g id="Blob quote" clip-path="url(#clip0_386_10153)">
<path id="Union" d="M67.2936 69.2416C75.1122 61.9408 80 51.5412 80 40C80 17.9086 62.0914 0 40 0C17.9086 0 0 17.9086 0 40C0 62.0914 17.9086 80 40 80C46.5526 80 52.7373 78.4244 58.1957 75.6314C68.6818 81.5097 77.3489 78.7098 77.3489 78.7098C71.9336 77.0559 68.8963 72.6719 67.2936 69.2416Z" fill="#0D9BFC"/>
<path id="&#226;&#128;&#156;" d="M40.1675 50L48.712 29H56L51.3927 50H40.1675ZM24 50L32.5445 29H39.8325L35.3089 50H24Z" fill="white"/>
</g>
<defs>
<clipPath id="clip0_386_10153">
<rect width="80" height="80" fill="white" transform="matrix(-1 0 0 1 80 0)"/>
</clipPath>
</defs>
</svg>
