<svg width="48" height="48" viewBox="0 0 48 48" fill="none" xmlns="http://www.w3.org/2000/svg">
<g clip-path="url(#clip0_537_7813)">
<path d="M40.3762 41.545C45.0673 37.1645 48 30.9247 48 24C48 10.7452 37.2548 0 24 0C10.7452 0 0 10.7452 0 24C0 37.2548 10.7452 48 24 48C27.9316 48 31.6424 47.0546 34.9174 45.3788C41.2091 48.9058 46.4094 47.2259 46.4094 47.2259C43.1602 46.2335 41.3378 43.6031 40.3762 41.545Z" fill="#E7F5FF"/>
<g clip-path="url(#clip1_537_7813)">
<path d="M15 24C15 25.1819 15.2328 26.3522 15.6851 27.4442C16.1374 28.5361 16.8003 29.5282 17.636 30.364C18.4718 31.1997 19.4639 31.8626 20.5558 32.3149C21.6478 32.7672 22.8181 33 24 33C25.1819 33 26.3522 32.7672 27.4442 32.3149C28.5361 31.8626 29.5282 31.1997 30.364 30.364C31.1997 29.5282 31.8626 28.5361 32.3149 27.4442C32.7672 26.3522 33 25.1819 33 24C33 22.8181 32.7672 21.6478 32.3149 20.5558C31.8626 19.4639 31.1997 18.4718 30.364 17.636C29.5282 16.8003 28.5361 16.1374 27.4442 15.6851C26.3522 15.2328 25.1819 15 24 15C22.8181 15 21.6478 15.2328 20.5558 15.6851C19.4639 16.1374 18.4718 16.8003 17.636 17.636C16.8003 18.4718 16.1374 19.4639 15.6851 20.5558C15.2328 21.6478 15 22.8181 15 24Z" stroke="#0D9BFC" stroke-width="1.5" stroke-linecap="round" stroke-linejoin="round"/>
<path d="M21 24L23 26L27 22" stroke="#0D9BFC" stroke-width="1.5" stroke-linecap="round" stroke-linejoin="round"/>
</g>
</g>
<defs>
<clipPath id="clip0_537_7813">
<rect width="48" height="48" fill="white"/>
</clipPath>
<clipPath id="clip1_537_7813">
<rect width="24" height="24" fill="white" transform="translate(12 12)"/>
</clipPath>
</defs>
</svg>
