<svg width="923" height="820" viewBox="0 0 923 820" fill="none" xmlns="http://www.w3.org/2000/svg">
<path d="M786.911 218.422C813.33 261.049 777.538 327.364 760.329 404.834C742.679 482.084 743.613 570.489 695.246 614.856C647.114 659.815 549.681 660.736 462.474 638.228C375.474 615.348 299.142 569.258 227.882 510.008C156.857 451.349 90.9041 379.53 96.3488 317.118C102.235 254.926 179.284 201.549 249.851 181.07C320.625 160.22 385.566 172.116 440.559 170.503C495.111 168.67 540.157 153.547 606.126 155.498C672.743 157.296 760.492 175.795 786.911 218.422Z" fill="#7F73EF"/>
<path d="M762.911 313.422C789.33 356.049 753.538 422.364 736.329 499.834C718.679 577.084 719.613 665.489 671.246 709.856C623.114 754.815 525.681 755.736 438.474 733.228C351.474 710.348 275.142 664.258 203.882 605.008C132.857 546.349 66.9041 474.53 72.3488 412.118C78.2347 349.926 155.284 296.549 225.851 276.07C296.625 255.22 361.566 267.116 416.559 265.503C471.111 263.67 516.157 248.547 582.126 250.498C648.743 252.296 736.492 270.795 762.911 313.422Z" fill="#ADF2D1"/>
<path d="M788.264 119.91C829.557 160.427 809.434 249.951 812.921 346.057C815.86 442.06 842.408 544.645 802.152 612.953C762.325 681.869 655.693 716.509 553.517 720.353C451.461 723.693 354.407 696.341 259.119 651.922C164.258 608.111 71.1639 547.233 59.1181 472.708C47.6199 398.286 116.743 309.608 188.252 261.459C259.881 212.805 334.564 204.279 394.434 183.455C453.755 162.527 498.811 129.404 571.751 108.947C645.359 88.0893 746.972 79.3923 788.264 119.91Z" fill="white"/>
</svg>
