<?xml version="1.0" encoding="UTF-8" standalone="no"?>
<svg
   width="1637.993"
   height="1148.5826"
   viewBox="0 0 1637.993 1148.5826"
   fill="none"
   version="1.1"
   id="svg1"
   xml:space="preserve"
   xmlns="http://www.w3.org/2000/svg"
   xmlns:svg="http://www.w3.org/2000/svg"><defs
     id="defs1" /><path
     d="m 39.063227,124.0961 c -77.9675,94.964 -17.28,251.564 -4.6146,431.67 13.7889,179.651 -20.444,382.807 77.954103,490.394 97.63,108.92 327.89,122.27 542.436,80.572 214.19,-42.577 411.54097,-139.749 601.64897,-267.764 189.35,-126.682 371.45,-284.208 381.18,-428.3361 8.59,-143.6739 -154.42,-275.2829 -314.02,-330.5029 C 1163.7077,44.030103 1005.6997,63.896103 876.13273,53.846103 747.68873,43.343103 646.55573,3.3791033 489.72073,0.25910327 331.40473,-3.2868967 117.03063,29.132103 39.063227,124.0961 Z"
     fill="#0d9bfc"
     id="path1" /><path
     d="m 1609.8228,694.53185 c 26.419,42.627 -9.373,108.942 -26.582,186.412 -17.65,77.25 -16.716,165.65505 -65.083,210.02205 -48.132,44.959 -145.565,45.88 -232.772,23.372 -87,-22.88 -163.3319,-68.97 -234.5919,-128.22005 -71.0253,-58.659 -136.97791,-130.478 -131.53317,-192.89 5.88592,-62.1921 82.93527,-115.5693 153.50217,-136.0475 70.7739,-20.85045 135.7149,-8.9544 190.7079,-10.5677 54.552,-1.8331 99.598,-16.95582 165.567,-15.00518 66.617,1.79816 154.366,20.29748 180.785,62.92438 z"
     fill="#adf2d1"
     id="path1-2"
     style="display:inline" /><path
     d="m 1563.2299,605.89172 c 26.419,42.627 -9.373,108.942 -26.582,186.412 -17.65,77.25 -16.716,165.655 -65.083,210.02198 -48.132,44.959 -145.565,45.88 -232.772,23.372 -87,-22.88 -163.3319,-68.96998 -234.5919,-128.21998 -71.02529,-58.659 -136.9779,-130.478 -131.53316,-192.89 5.88592,-62.1921 82.93527,-115.5693 153.50216,-136.0475 70.774,-20.85045 135.7149,-8.9544 190.7079,-10.5677 54.552,-1.8331 99.598,-16.95582 165.567,-15.00518 66.617,1.79816 154.366,20.29748 180.785,62.92438 z"
     fill="#7f73ef"
     id="path1-7"
     style="display:inline" /><path
     d="m 1569.7237,505.36399 c 41.292,40.5173 21.17,130.0415 24.656,226.1475 2.939,96.003 29.487,198.588 -10.768,266.896 -39.828,68.91601 -146.459,103.55601 -248.636,107.40001 -102.056,3.34 -199.11,-24.012 -294.3979,-68.431 -94.86002,-43.81101 -187.95472,-104.68901 -200.0004,-179.21401 -11.49826,-74.422 57.62458,-163.1 129.13438,-211.249 71.62902,-48.654 146.31192,-57.18 206.18092,-78.0041 59.322,-20.9279 104.377,-54.0506 177.318,-74.50759 73.607,-20.85801 175.22,-29.555 216.513,10.96219 z"
     fill="#ffffff"
     id="path1-5"
     style="display:inline" /></svg>
