<svg width="1440" height="920" viewBox="0 0 1440 920" fill="none" xmlns="http://www.w3.org/2000/svg">
<path d="M1675.58 -334.31C1813.66 -271.135 1809.21 -104.396 1874.17 68.4861C1937.54 241.314 2070.33 420.284 1997.72 553.579C1926.65 687.871 1650.2 776.488 1368.41 808.349C1086.68 839.27 801.19 813.489 510.798 756.425C221.945 700.357 -71.8143 613.006 -148.152 481.222C-222.908 349.493 -81.7812 172.336 89.2858 67.8618C260.396 -37.5541 463.07 -71.1752 617.498 -123.416C770.344 -175.711 876.525 -246.573 1067.5 -301.337C1260.09 -356.989 1537.51 -397.485 1675.58 -334.31Z" fill="#ADF2D1"/>
<path d="M1462.62 -329.438C1597.67 -260.04 1585.63 -93.6766 1642.65 81.9838C1698.09 257.518 1822.59 442.349 1743.99 572.2C1666.88 703.116 1386.67 779.051 1103.73 798.048C820.877 816.106 536.862 777.351 249.37 707.122C-36.63 637.958 -326.107 537.32 -396.364 402.197C-465.044 267.2 -315.996 96.6539 -140.348 0.0780191C35.3846 -97.4363 239.38 -121.793 396.026 -166.947C551.096 -212.228 660.394 -278.18 853.659 -324.191C1048.59 -371.014 1327.57 -398.835 1462.62 -329.438Z" fill="#7F73EF"/>
<path d="M1488.19 -289.306C1619.49 -213.035 1598.88 -47.5131 1646.77 130.854C1693.08 309.015 1807.87 500.021 1722.68 625.645C1638.92 752.409 1355.17 813.791 1071.63 818.168C788.218 821.612 506.58 768.259 223.093 683.294C-58.9585 599.47 -342.859 484.034 -406.053 345.467C-467.678 207.108 -310.032 44.4766 -129.637 -42.9107C50.8924 -131.231 255.872 -145.033 414.639 -182.047C571.838 -219.269 684.392 -279.495 879.774 -315.476C1076.86 -352.183 1356.9 -365.577 1488.19 -289.306Z" fill="#0D9BFC"/>
</svg>
