<svg width="1440" height="695" viewBox="0 0 1440 695" fill="none" xmlns="http://www.w3.org/2000/svg">
<path opacity="0.25" d="M0 327.5L16 311.5C126.181 201.319 304.819 201.319 415 311.5L522.75 419.25C573.422 469.922 655.578 469.922 706.25 419.25L728.5 397C766.884 358.616 829.116 358.616 867.5 397V397C905.884 435.384 968.116 435.384 1006.5 397L1091.75 311.75C1177.22 226.284 1315.78 226.284 1401.25 311.75L1430.5 341C1532.12 442.62 1696.88 442.62 1798.5 341L1964.25 175.25C2061.04 78.4619 2217.96 78.4621 2314.75 175.25L2347.5 208C2426.2 286.701 2553.8 286.701 2632.5 208V208" stroke="url(#paint0_linear_7_475)"/>
<path opacity="0.5" d="M1556.1 314.984L1544.06 308.92C1454.32 263.737 1345.76 280.833 1274.26 351.408L1209.64 415.188C1176.75 447.645 1126.82 455.508 1085.56 434.728L1068.81 426.296C1037.55 410.556 999.73 416.511 974.82 441.098V441.098C949.909 465.684 912.091 471.639 880.829 455.899L816.667 423.592C747.061 388.545 662.854 401.805 607.387 456.549L589.845 473.863C523.895 538.955 423.771 554.722 341.008 513.05L216.259 450.237C137.432 410.546 42.0694 425.564 -20.7446 487.56L-40.3861 506.945C-91.4618 557.356 -169.003 569.567 -233.099 537.294V537.294" stroke="url(#paint1_linear_7_475)"/>
<path opacity="0.25" d="M-313.702 335.726L-275.28 360.774C-182.707 421.125 -65.9666 430.804 35.2815 386.522L164.266 330.11C218.539 306.373 281.116 311.561 330.739 343.912L350.021 356.482C387.61 380.987 435.011 384.917 476.123 366.937V366.937C517.234 348.956 564.636 352.886 602.225 377.392L676.103 425.555C759.799 480.119 865.344 488.869 956.884 448.834L996.774 431.387C1098.02 387.106 1214.76 396.784 1307.34 457.135L1465.64 560.339C1558.21 620.69 1674.95 630.369 1776.2 586.087L1811.12 570.817C1895.41 533.951 1992.6 542.009 2069.67 592.253V592.253" stroke="url(#paint2_linear_7_475)"/>
<defs>
<linearGradient id="paint0_linear_7_475" x1="1426.59" y1="525" x2="1498.99" y2="33.2131" gradientUnits="userSpaceOnUse">
<stop stop-color="#0D9BFC"/>
<stop offset="1" stop-color="#998FF2"/>
</linearGradient>
<linearGradient id="paint1_linear_7_475" x1="606.552" y1="562.77" x2="543.073" y2="325.569" gradientUnits="userSpaceOnUse">
<stop stop-color="#0D9BFC"/>
<stop offset="1" stop-color="#998FF2"/>
</linearGradient>
<linearGradient id="paint2_linear_7_475" x1="988.535" y1="346.301" x2="987.694" y2="592.439" gradientUnits="userSpaceOnUse">
<stop stop-color="#0D9BFC"/>
<stop offset="1" stop-color="#998FF2"/>
</linearGradient>
</defs>
</svg>
