<svg width="938" height="820" viewBox="0 0 938 820" fill="none" xmlns="http://www.w3.org/2000/svg">
<g filter="url(#filter0_f_84_910)">
<path d="M1358.77 45.6728C1372.33 124.693 1168.19 273.697 1083.78 358.151C998.123 442.543 1033.45 462.446 1117.01 544.338C1200.54 626.876 1333.52 772.111 1295.68 827.182C1256.59 882.191 1047.86 848.39 878.157 810.724C709.668 773.767 580.137 734.236 461.089 685.521C342.04 636.807 232.225 578.844 169.448 507.061C106.672 435.278 89.7176 348.965 175.797 306.031C261.844 263.742 452.206 264.248 586.347 212.075C721.769 159.32 800.97 53.8868 957.437 6.07408C1112.69 -42.4472 1345.21 -33.3477 1358.77 45.6728Z" fill="url(#paint0_angular_84_910)"/>
</g>
<defs>
<filter id="filter0_f_84_910" x="0.730957" y="-139.709" width="1474.68" height="1111.79" filterUnits="userSpaceOnUse" color-interpolation-filters="sRGB">
<feFlood flood-opacity="0" result="BackgroundImageFix"/>
<feBlend mode="normal" in="SourceGraphic" in2="BackgroundImageFix" result="shape"/>
<feGaussianBlur stdDeviation="58" result="effect1_foregroundBlur_84_910"/>
</filter>
<radialGradient id="paint0_angular_84_910" cx="0" cy="0" r="1" gradientUnits="userSpaceOnUse" gradientTransform="translate(358.994 489.606) rotate(149.441) scale(260.964 404.91)">
<stop offset="0.453125" stop-color="#B0E0FF"/>
<stop offset="0.775942" stop-color="#D9F0FF"/>
<stop offset="0.838542" stop-color="#944DFF" stop-opacity="0.26"/>
</radialGradient>
</defs>
</svg>
