<svg width="1156" height="820" viewBox="0 0 1156 820" fill="none" xmlns="http://www.w3.org/2000/svg">
<g filter="url(#filter0_f_84_912)">
<path d="M1268.79 261.699C1257.77 315.313 1075.5 347.076 994.194 374.525C912.026 401.557 931.681 424.692 969.123 501.234C1006.37 578.17 1062.08 709.325 1021.16 732.416C979.37 755.09 841.428 670.908 731.923 596.081C623.09 522.066 542.314 458.197 471.296 391.736C400.277 325.275 338.155 255.806 312.695 191.873C287.235 127.94 297.767 68.7317 369.448 67.8064C440.938 67.276 574.629 125.05 682.499 132.842C791.422 140.655 874.524 98.487 996.955 115.75C1118.72 132.201 1279.81 208.084 1268.79 261.699Z" fill="url(#paint0_angular_84_912)"/>
</g>
<defs>
<filter id="filter0_f_84_912" x="0.134277" y="-232.197" width="1569.19" height="1268.37" filterUnits="userSpaceOnUse" color-interpolation-filters="sRGB">
<feFlood flood-opacity="0" result="BackgroundImageFix"/>
<feBlend mode="normal" in="SourceGraphic" in2="BackgroundImageFix" result="shape"/>
<feGaussianBlur stdDeviation="150" result="effect1_foregroundBlur_84_912"/>
</filter>
<radialGradient id="paint0_angular_84_912" cx="0" cy="0" r="1" gradientUnits="userSpaceOnUse" gradientTransform="translate(450.484 238.144) rotate(175.449) scale(193.095 284.044)">
<stop offset="0.453125" stop-color="#ADF2D1"/>
<stop offset="0.598958" stop-color="#5DBCFD" stop-opacity="0"/>
<stop offset="0.838542" stop-color="#7F73EF" stop-opacity="0.44"/>
</radialGradient>
</defs>
</svg>
