<?xml version="1.0" encoding="UTF-8"?><svg id="b" xmlns="http://www.w3.org/2000/svg" viewBox="0 0 630.09 67.46"><path d="m108.33,44.08c0,7.65-5.06,12.82-12.93,12.82-6.9,0-9.59-4.53-9.59-10.67V15.41h-11.64v33.84c0,10.99,5.06,18.21,15.73,18.21,8.41,0,14.87-5.39,17.67-14.76h1.08v13.36h11.31V15.41h-11.64v28.66Z"/><path d="m153.05,14.23c-12.93,0-20.15,6.14-22.09,15.73l10.99,2.48c1.29-5.93,4.74-8.94,10.67-8.94,7.11,0,9.81,3.77,9.81,10.35v3.45h-15.09c-12.82,0-18.32,6.57-18.32,15.63,0,9.91,6.36,14.23,15.41,14.23s14.76-4.96,17.35-13.15h1.19v12.07h10.99v-32.33c0-12.61-6.25-19.5-20.91-19.5Zm9.37,32.76c0,6.36-5.39,11.1-13.47,11.1-6.57,0-8.84-3.12-8.84-6.79,0-4.2,3.34-6.36,9.16-6.36h13.15v2.05Z"/><path d="m215.77,14.12c-8.51,0-14.98,5.28-17.78,14.66h-.97v-13.36h-11.31v50.65h11.53v-28.67c0-7.65,5.17-12.82,12.93-12.82,7,0,9.7,4.53,9.7,10.67v30.82h11.53v-33.84c0-10.99-5.06-18.1-15.63-18.1Z"/><path d="m264.37,56.58c-5.06,0-6.9-2.59-6.9-7.54v-24.25h14.87v-9.37h-14.87V1.72h-11.64v13.69h-7.11v9.37h7.11v25.86c0,9.48,4.74,16.81,15.84,16.81,5.06,0,7.65-.65,11.42-1.83l-1.4-10.35c-2.48.75-4.74,1.29-7.33,1.29Z"/><path d="m315.02,44.08c0,7.65-5.06,12.82-12.93,12.82-6.9,0-9.59-4.53-9.59-10.67V15.41h-11.64v33.84c0,10.99,5.06,18.21,15.73,18.21,8.4,0,14.87-5.39,17.67-14.76h1.08v13.36h11.32V15.41h-11.64v28.66Z"/><path d="m402.74,14.12c-9.38,0-15.3,5.5-17.78,15.19h-1.19c-.75-9.38-5.5-15.19-14.98-15.19-8.62,0-14.98,5.17-17.78,14.66h-.97v-13.36h-11.31v50.65h11.53v-28.67c0-7.65,5.17-12.82,12.93-12.82,6.79,0,9.7,4.53,9.7,10.67v30.82h11.53v-28.67c0-7.65,4.96-12.82,12.93-12.82,6.79,0,9.59,4.53,9.59,10.67v30.82h11.64v-33.84c0-10.99-5.17-18.1-15.84-18.1Z"/><path d="m59,54.65c.2-.3.39-.61.57-.92.27-.45.53-.91.79-1.38.09-.17.19-.34.28-.52.19-.38.37-.76.55-1.15.05-.11.1-.21.15-.32.2-.45.39-.9.58-1.36,0-.02.01-.03.02-.05,1.78-4.5,2.72-9.69,2.72-15.45C64.66,13.15,52.7,0,32.33,0c0,0-.01,0-.02,0s-.01,0-.02,0c-.22,0-.42.01-.64.01h0C11.8.31,0,13.38,0,33.51s11.28,33.64,31.65,33.93h0c.21,0,.42.01.64.01,0,0,.01,0,.02,0s.01,0,.02,0c.62,0,1.23-.02,1.84-.04.03,0,.07,0,.1,0,1.81-.07,3.53-.25,5.18-.55.28-.05.56-.1.84-.16.06-.01.13-.02.19-.04,4.3-.86,8.05-2.44,11.24-4.62l5.12,5.4h14.37l-12.47-12.42c.09-.12.18-.25.26-.38Zm-26.69,2.14c-.22,0-.44,0-.66-.01h0c-13.49-.25-19.47-9.45-19.47-23.26s6.25-22.73,20.13-22.74c2,0,3.83.2,5.52.56,9.96,2.18,14.55,10.55,14.55,22.17,0,4.95-.77,9.27-2.36,12.82l-5.19-5.18-6.69,6.58,5.71,6.01c-2.99,1.94-6.8,3.03-11.53,3.04Z"/><path d="m482.03,49.54h-27.65l-5.62,16.52h-12.74L460.1,1.26h16.63l24.08,64.8h-13.18l-5.62-16.52Zm-24.41-9.18h21.17l-2.7-7.99c-2.27-6.59-4.54-13.93-6.48-20.41h-2.7c-1.94,6.48-4.32,13.82-6.59,20.41l-2.7,7.99Z"/><path d="m506.76,1.26h26.35c22.36,0,32.62,11.34,32.62,31.86s-12.31,32.94-32.62,32.94h-26.35V1.26Zm12.31,10.26v44.39h13.07c15.23,0,21.28-8.21,21.28-22.79s-6.37-21.6-21.92-21.6h-12.42Z"/><path d="m599.64,41.76h-12.1v24.3h-12.31V1.26h27.22c16.2,0,23.87,6.8,23.87,19.66,0,10.15-5.18,16.85-14.26,19.55l18.04,24.41v1.19h-14.36l-16.09-24.3Zm-12.1-30.13v19.76h13.82c8.42,0,12.85-3.24,12.85-10.15s-3.35-9.61-12.64-9.61h-14.04Z"/></svg>