<?xml version="1.0" encoding="UTF-8" standalone="no"?>
<svg
   id="b"
   viewBox="0 0 872.50003 128.76"
   version="1.1"
   width="872.5"
   height="128.75999"
   xmlns="http://www.w3.org/2000/svg"
   xmlns:svg="http://www.w3.org/2000/svg">
  <defs
     id="defs14" />
  <path
     d="m 39.47,89.72 c 0.47,0.27 0.94,0.54 1.41,0.79 C 26.83,75.37 23.67,52.25 34.63,33.49 47.77,11 76.33,3.12 99.07,15.42 95.93,12.03 92.24,9.04 88.04,6.59 65.08,-6.83 35.6,0.91 22.19,23.86 8.78,46.82 16.51,76.3 39.47,89.71 Z"
     fill="#ffffff"
     id="path1" />
  <path
     d="m 38.85,39.46 c -0.28,0.47 -0.54,0.94 -0.8,1.41 15.18,-14.01 38.31,-17.1 57.03,-6.09 22.45,13.2 30.25,41.78 17.89,64.49 3.4,-3.13 6.4,-6.81 8.87,-11 13.48,-22.92 5.82,-52.42 -17.1,-65.9 C 81.82,8.89 52.32,16.55 38.84,39.47 Z"
     fill="#ffffff"
     id="path2" />
  <path
     d="m 89.72,89.08 c 0.27,-0.47 0.54,-0.94 0.79,-1.41 C 75.37,101.72 52.25,104.88 33.49,93.92 11,80.78 3.12,52.22 15.42,29.48 12.03,32.62 9.04,36.31 6.59,40.51 -6.83,63.46 0.91,92.95 23.86,106.36 46.82,119.77 76.3,112.04 89.71,89.08 Z"
     fill="#ffffff"
     id="path3" />
  <path
     d="m 105.33,106.35 c 0.35,-0.55 0.7,-1.1 1.03,-1.66 13.41,-22.96 5.68,-52.44 -17.28,-65.85 -0.47,-0.27 -0.94,-0.54 -1.41,-0.79 14.05,15.14 17.21,38.26 6.25,57.02 -13.14,22.49 -41.7,30.37 -64.44,18.07 3.14,3.39 6.83,6.38 11.03,8.83 15.78,9.22 34.63,8.45 49.24,-0.39 19.37,11.18 35.51,5.98 35.51,5.98 -12.18,-3.71 -17.74,-15 -19.93,-21.21 z"
     fill="#ffffff"
     id="path4" />
  <path
     d="m 271.2,72.84 c 0,7.65 -5.06,12.82 -12.93,12.82 -6.9,0 -9.59,-4.53 -9.59,-10.67 V 44.17 h -11.64 v 33.84 c 0,10.99 5.06,18.21 15.73,18.21 8.41,0 14.87,-5.39 17.67,-14.76 h 1.08 v 13.36 h 11.31 V 44.17 h -11.64 v 28.66 z"
     fill="#ffffff"
     id="path5" />
  <path
     d="m 315.92,42.99 c -12.93,0 -20.15,6.14 -22.09,15.73 l 10.99,2.48 c 1.29,-5.93 4.74,-8.94 10.67,-8.94 7.11,0 9.81,3.77 9.81,10.35 v 3.45 h -15.09 c -12.82,0 -18.32,6.57 -18.32,15.63 0,9.91 6.36,14.23 15.41,14.23 9.05,0 14.76,-4.96 17.35,-13.15 h 1.19 v 12.07 h 10.99 V 62.51 c 0,-12.61 -6.25,-19.5 -20.91,-19.5 z m 9.37,32.76 c 0,6.36 -5.39,11.1 -13.47,11.1 -6.57,0 -8.84,-3.12 -8.84,-6.79 0,-4.2 3.34,-6.36 9.16,-6.36 h 13.15 z"
     fill="#ffffff"
     id="path6" />
  <path
     d="m 378.64,42.88 c -8.51,0 -14.98,5.28 -17.78,14.66 h -0.97 V 44.18 h -11.31 v 50.65 h 11.53 V 66.16 c 0,-7.65 5.17,-12.82 12.93,-12.82 7,0 9.7,4.53 9.7,10.67 v 30.82 h 11.53 V 60.99 c 0,-10.99 -5.06,-18.1 -15.63,-18.1 z"
     fill="#ffffff"
     id="path7" />
  <path
     d="m 427.25,85.34 c -5.06,0 -6.9,-2.59 -6.9,-7.54 V 53.55 h 14.87 V 44.18 H 420.35 V 30.49 h -11.64 v 13.69 h -7.11 v 9.37 h 7.11 v 25.86 c 0,9.48 4.74,16.81 15.84,16.81 5.06,0 7.65,-0.65 11.42,-1.83 l -1.4,-10.35 c -2.48,0.75 -4.74,1.29 -7.33,1.29 z"
     fill="#ffffff"
     id="path8" />
  <path
     d="m 477.89,72.84 c 0,7.65 -5.06,12.82 -12.93,12.82 -6.9,0 -9.59,-4.53 -9.59,-10.67 V 44.17 h -11.64 v 33.84 c 0,10.99 5.06,18.21 15.73,18.21 8.4,0 14.87,-5.39 17.67,-14.76 h 1.08 v 13.36 h 11.32 V 44.17 h -11.64 v 28.66 z"
     fill="#ffffff"
     id="path9" />
  <path
     d="m 565.61,42.88 c -9.38,0 -15.3,5.5 -17.78,15.19 h -1.19 c -0.75,-9.38 -5.5,-15.19 -14.98,-15.19 -8.62,0 -14.98,5.17 -17.78,14.66 h -0.97 V 44.18 H 501.6 v 50.65 h 11.53 V 66.16 c 0,-7.65 5.17,-12.82 12.93,-12.82 6.79,0 9.7,4.53 9.7,10.67 v 30.82 h 11.53 V 66.16 c 0,-7.65 4.96,-12.82 12.93,-12.82 6.79,0 9.59,4.53 9.59,10.67 v 30.82 h 11.64 V 60.99 c 0,-10.99 -5.17,-18.1 -15.84,-18.1 z"
     fill="#ffffff"
     id="path10" />
  <path
     d="m 221.87,83.41 c 0.2,-0.3 0.39,-0.61 0.57,-0.92 0.27,-0.45 0.53,-0.91 0.79,-1.38 0.09,-0.17 0.19,-0.34 0.28,-0.52 0.19,-0.38 0.37,-0.76 0.55,-1.15 0.05,-0.11 0.1,-0.21 0.15,-0.32 0.2,-0.45 0.39,-0.9 0.58,-1.36 0,-0.02 0.01,-0.03 0.02,-0.05 1.78,-4.5 2.72,-9.69 2.72,-15.45 0,-20.37 -11.96,-33.51 -32.33,-33.51 0,0 -0.01,0 -0.02,0 -0.01,0 -0.01,0 -0.02,0 -0.22,0 -0.42,0.01 -0.64,0.01 v 0 c -19.85,0.29 -31.65,13.36 -31.65,33.5 0,20.14 11.28,33.64 31.65,33.93 v 0 c 0.21,0 0.42,0.01 0.64,0.01 0,0 0.01,0 0.02,0 0.01,0 0.01,0 0.02,0 0.62,0 1.23,-0.02 1.84,-0.04 0.03,0 0.07,0 0.1,0 1.81,-0.07 3.53,-0.25 5.18,-0.55 0.28,-0.05 0.56,-0.1 0.84,-0.16 0.06,-0.01 0.13,-0.02 0.19,-0.04 4.3,-0.86 8.05,-2.44 11.24,-4.62 l 5.12,5.4 h 14.37 L 221.61,83.77 c 0.09,-0.12 0.18,-0.25 0.26,-0.38 z m -26.69,2.14 c -0.22,0 -0.44,0 -0.66,-0.01 v 0 c -13.49,-0.25 -19.47,-9.45 -19.47,-23.26 0,-13.81 6.25,-22.73 20.13,-22.74 2,0 3.83,0.2 5.52,0.56 9.96,2.18 14.55,10.55 14.55,22.17 0,4.95 -0.77,9.27 -2.36,12.82 l -5.19,-5.18 -6.69,6.58 5.71,6.01 c -2.99,1.94 -6.8,3.03 -11.53,3.04 z"
     fill="#ffffff"
     id="path11" />
  <path
     d="m 722.9,78.3 h -27.65 l -5.62,16.52 h -12.74 l 24.08,-64.8 h 16.63 l 24.08,64.8 H 728.5 L 722.88,78.3 Z m -24.41,-9.18 h 21.17 l -2.7,-7.99 c -2.27,-6.59 -4.54,-13.93 -6.48,-20.41 h -2.7 c -1.94,6.48 -4.32,13.82 -6.59,20.41 z"
     fill="#ffffff"
     id="path12" />
  <path
     d="m 747.63,30.02 h 26.35 c 22.36,0 32.62,11.34 32.62,31.86 0,20.52 -12.31,32.94 -32.62,32.94 h -26.35 z m 12.31,10.26 v 44.39 h 13.07 c 15.23,0 21.28,-8.21 21.28,-22.79 0,-14.58 -6.37,-21.6 -21.92,-21.6 h -12.42 z"
     fill="#ffffff"
     id="path13" />
  <path
     d="m 840.51,70.52 h -12.1 v 24.3 H 816.1 v -64.8 h 27.22 c 16.2,0 23.87,6.8 23.87,19.66 0,10.15 -5.18,16.85 -14.26,19.55 l 18.04,24.41 v 1.19 h -14.36 l -16.09,-24.3 z m -12.1,-30.13 v 19.76 h 13.82 c 8.42,0 12.85,-3.24 12.85,-10.15 0,-6.91 -3.35,-9.61 -12.64,-9.61 H 828.4 Z"
     fill="#ffffff"
     id="path14" />
  <path
     d="M 594.6893,58.208572 V 26.688591 h -10.87999 v -5.81333 h 28.63998 v 5.81333 h -10.93333 v 31.519981 z"
     id="text17"
     fill="#ffffff"
     aria-label="T" />
  <path
     d="M 617.03601,58.208572 V 20.875261 h 8.10666 L 635.756,44.981914 646.20933,20.875261 h 8.10666 v 37.333311 h -6.82666 V 33.035254 l -9.12,20.426655 h -5.38666 l -9.12,-20.426655 v 25.173318 z"
     id="text16"
     fill="#ffffff"
     aria-label="M" />
</svg>
