<?xml version="1.0" encoding="UTF-8" standalone="no"?>
<svg
   width="179.4102"
   height="28.940201"
   viewBox="0 0 179.4102 28.940201"
   fill="#ffffff"
   version="1.1"
   id="svg1"
   xmlns="http://www.w3.org/2000/svg"
   xmlns:svg="http://www.w3.org/2000/svg">
  <g
     id="a"
     clip-path="url(#clip0_93_351)"
     transform="translate(-66.589798,-11.5342)">
    <path
       id="Vector"
       d="m 15.9279,36.2334 c 0.1897,0.109 0.3794,0.2181 0.5691,0.319 C 10.8271,30.4381 9.55186,21.1011 13.9748,13.5248 19.2774,4.44216 30.8028,1.25981 39.9795,6.22719 38.7124,4.85813 37.2233,3.65061 35.5284,2.66118 26.2629,-2.75852 14.3662,0.367296 8.95461,9.6357 3.543,18.9081 6.66244,30.8137 15.9279,36.2294 Z"
       fill="#ffffff" />
    <path
       id="Vector_2"
       d="m 15.6778,15.9356 c -0.113,0.1898 -0.2179,0.3796 -0.3228,0.5694 6.1259,-5.658 15.46,-6.90586 23.0144,-2.4594 9.0597,5.3308 12.2074,16.8729 7.2195,26.0444 1.3721,-1.2641 2.5828,-2.7503 3.5755,-4.4424 C 54.6042,26.3913 51.5131,14.4777 42.2637,9.03375 33.0143,3.58982 21.1096,6.68333 15.6698,15.9396 Z"
       fill="#ffffff" />
    <path
       id="Vector_3"
       d="m 36.2063,35.9749 c 0.1089,-0.1898 0.2179,-0.3797 0.3188,-0.5695 -6.1098,5.6742 -15.4398,6.9503 -23.0104,2.5241 C 4.43884,32.6229 1.25887,21.0889 6.22253,11.9053 4.8545,13.1734 3.64788,14.6636 2.65919,16.3598 -2.75645,25.6282 0.367022,37.5378 9.62849,42.9534 18.894,48.3691 30.7906,45.2473 36.2023,35.9749 Z"
       fill="#ffffff" />
    <path
       id="Vector_4"
       d="m 42.5057,42.9454 c 0.1413,-0.2221 0.2825,-0.4442 0.4157,-0.6704 5.4116,-9.2724 2.2922,-21.178 -6.9733,-26.5937 -0.1897,-0.109 -0.3794,-0.218 -0.569,-0.319 5.6698,6.1143 6.945,15.4514 2.5221,23.0277 -5.3026,9.0826 -16.828,12.2649 -26.0047,7.2976 1.2671,1.369 2.7562,2.5765 4.4511,3.566 6.3681,3.7235 13.975,3.4125 19.8708,-0.1575 7.8168,4.515 14.3301,2.415 14.3301,2.415 -4.9152,-1.4983 -7.159,-6.0578 -8.0428,-8.5657 z"
       fill="#ffffff" />
    <path
       id="Vector_5"
       d="m 113.018,30.4388 c 0,3.2833 -2.171,5.5004 -5.544,5.5004 -2.958,0 -4.113,-1.9425 -4.113,-4.5756 V 18.1455 H 98.3735 V 32.66 c 0,4.7129 2.1715,7.8105 6.7435,7.8105 3.604,0 6.372,-2.3101 7.574,-6.3324 h 0.461 v 5.7306 h 4.85 V 18.1455 h -4.988 v 12.2933 z"
       fill="#ffffff" />
    <path
       id="Vector_6"
       d="m 132.187,17.6318 c -5.541,0 -8.636,2.6332 -9.467,6.7484 l 4.709,1.0621 c 0.553,-2.5442 2.034,-3.8366 4.572,-3.8366 3.047,0 4.201,1.6195 4.201,4.4384 v 1.4781 h -6.465 c -5.496,0 -7.853,2.8189 -7.853,6.7039 0,4.2526 2.724,6.1022 6.606,6.1022 3.883,0 6.328,-2.1283 7.438,-5.6377 h 0.508 v 5.1773 h 4.71 V 25.9997 c 0,-5.4076 -2.68,-8.3679 -8.959,-8.3679 z m 4.019,14.0501 c 0,2.726 -2.308,4.7614 -5.775,4.7614 -2.816,0 -3.785,-1.3408 -3.785,-2.9118 0,-1.8012 1.433,-2.726 3.927,-2.726 h 5.633 z"
       fill="#ffffff" />
    <path
       id="Vector_7"
       d="m 159.071,17.588 c -3.648,0 -6.42,2.2656 -7.619,6.288 h -0.415 v -5.7307 h -4.851 v 21.7232 h 4.944 V 27.5712 c 0,-3.2833 2.215,-5.5004 5.544,-5.5004 3.003,0 4.157,1.9425 4.157,4.5756 v 13.2181 h 4.943 V 25.3501 c 0,-4.713 -2.171,-7.7661 -6.699,-7.7661 z"
       fill="#ffffff" />
    <path
       id="Vector_8"
       d="m 179.902,35.8019 c -2.171,0 -2.958,-1.1106 -2.958,-3.2349 V 22.1678 h 6.372 v -4.0224 h -6.372 v -5.872 h -4.988 v 5.872 h -3.046 v 4.0224 h 3.046 v 11.0938 c 0,4.0668 2.034,7.2128 6.792,7.2128 2.171,0 3.281,-0.2786 4.895,-0.7875 l -0.601,-4.4383 c -1.061,0.3231 -2.034,0.5533 -3.14,0.5533 z"
       fill="#ffffff" />
    <path
       id="Vector_9"
       d="m 201.61,30.4388 c 0,3.2833 -2.172,5.5004 -5.541,5.5004 -2.958,0 -4.112,-1.9425 -4.112,-4.5756 V 18.1455 h -4.988 V 32.66 c 0,4.7129 2.171,7.8105 6.743,7.8105 3.604,0 6.372,-2.3101 7.575,-6.3324 h 0.46 v 5.7306 h 4.85 V 18.1455 h -4.987 z"
       fill="#ffffff" />
    <path
       id="Vector_10"
       d="m 239.208,17.5882 c -4.019,0 -6.557,2.3585 -7.623,6.5181 h -0.508 c -0.323,-4.0223 -2.357,-6.5181 -6.421,-6.5181 -3.696,0 -6.42,2.2171 -7.619,6.2879 h -0.415 v -5.7306 h -4.851 v 21.7232 h 4.943 V 27.5714 c 0,-3.2833 2.216,-5.5005 5.545,-5.5005 2.91,0 4.157,1.9425 4.157,4.5757 v 13.218 h 4.943 V 27.5673 c 0,-3.2833 2.127,-5.5004 5.541,-5.5004 2.91,0 4.112,1.9425 4.112,4.5756 V 39.8606 H 246 V 25.3462 c 0,-4.713 -2.215,-7.7661 -6.792,-7.7661 z"
       fill="#ffffff" />
    <path
       id="Vector_11"
       d="m 91.8763,34.9738 c 0.0847,-0.1293 0.1654,-0.2625 0.2461,-0.3918 0.1171,-0.1938 0.2301,-0.3877 0.339,-0.5896 0.0404,-0.0767 0.0807,-0.1494 0.1211,-0.2221 0.0847,-0.1616 0.1614,-0.3271 0.2381,-0.4927 0.0202,-0.0444 0.0444,-0.0889 0.0646,-0.1333 0.0847,-0.1898 0.1694,-0.3877 0.2461,-0.5856 0,-0.0081 0.0041,-0.0121 0.0081,-0.0202 0.7627,-1.9304 1.1663,-4.1556 1.1663,-6.6272 0,-8.7353 -5.1251,-14.3771 -13.8579,-14.3771 0,0 -0.0041,0 -0.0081,0 -0.0041,0 -0.0041,0 -0.0081,0 -0.0928,0 -0.1816,0.004 -0.2744,0.004 -8.5068,0.1252 -13.5674,5.7307 -13.5674,14.3691 0,8.6384 4.8386,14.4296 13.5674,14.5548 0.0928,0 0.1816,0.004 0.2744,0.004 0,0 0.004,0 0.0081,0 0.004,0 0.004,0 0.0081,0 0.2663,0 0.5286,-0.008 0.7869,-0.0161 0.0161,0 0.0282,0 0.0444,0 0.7748,-0.0323 1.5133,-0.109 2.2195,-0.2342 0.1211,-0.0202 0.2381,-0.0445 0.3591,-0.0687 0.0283,-0.004 0.0565,-0.0121 0.0808,-0.0161 1.8401,-0.3716 3.4503,-1.046 4.8183,-1.983 l 2.1954,2.3141 h 6.1581 l -5.343,-5.3308 c 0.0363,-0.0525 0.0767,-0.105 0.113,-0.1616 z m -11.4407,0.9167 c -0.0968,0 -0.1896,0 -0.2824,-0.004 -5.7829,-0.1091 -8.3455,-4.0547 -8.3455,-9.9792 0,-5.9245 2.6756,-9.749 8.6279,-9.7531 0.8556,0 1.6425,0.0849 2.3648,0.2424 4.2696,0.9329 6.2349,4.5271 6.2349,9.5107 0,2.1242 -0.3309,3.9779 -1.0089,5.4964 l -2.2276,-2.2212 -2.8692,2.8229 2.4455,2.5807 c -1.2833,0.8319 -2.9136,1.2963 -4.9395,1.3044 z"
       fill="#ffffff" />
  </g>
  <defs
     id="defs1">
    <clipPath
       id="clip0_93_351">
      <rect
         width="246"
         height="52"
         fill="#ffffff"
         id="rect1"
         x="0"
         y="0" />
    </clipPath>
  </defs>
</svg>
