<svg width="208" height="208" viewBox="0 0 208 208" fill="none" xmlns="http://www.w3.org/2000/svg">
<path d="M82.2 2.60001C54.1 10.9 35.1 30.8 27.3 60.1C25.1 68.5 25.1 86.1 27.3 95.3C30.7 109.2 39.4 124.4 49.1 133.5C54.7 138.8 64 145.6 64 144.4C64 144.1 62.4 141.6 60.5 139C55.3 132 49.2 118.4 47.5 110.2C40.5 76.2 55.6 42.1 85.2 25.3C104.7 14.2 127.6 12.3 149.5 20C153.9 21.6 157.6 22.7 157.8 22.5C158.4 21.9 149 14.5 142.8 10.8C130.1 3.00002 118.7 1.52588e-05 102.5 0.100006C92.8 0.100006 88.9 0.600006 82.2 2.60001Z" fill="black"/>
<path d="M119.5 25.6C118.4 25.8 114.4 26.8 110.5 27.6C96.9 30.7 80.7 40.6 71.8 51.2C67 56.9 63 62.5 63 63.4C63 63.7 66.6 61.5 71 58.6C84.9 49.3 102.5 44.3 118 45.3C151.5 47.5 178 68.4 188.6 101C191 108.6 191.3 111 191.4 123C191.4 135.6 191.1 137.1 188.1 146C186.3 151.2 184.6 156.2 184.4 157C183.5 159.8 192.5 149.3 195.9 143.7C203.8 130.4 207.1 118.5 207.1 103C207.1 90.8 205.9 84.6 201.3 73.1C193.1 52.2 173.2 34.4 151 28C143.8 25.9 124.3 24.4 119.5 25.6Z" fill="black"/>
<path d="M20.3 52.3C15.3 57.6 12.3 62.1 8.2 70.5C-6.6 100.6 -0.0999969 137.5 24.2 160.6C39.5 175.2 56.7 182 78.1 182C96.7 182 113.6 175.9 127.5 164.3C133.7 159.1 145 145.8 145 143.7C145 143.3 142.2 144.9 138.8 147.3C130.7 153 124.3 156.2 115 159.2C108.6 161.1 105.4 161.5 93.5 161.5C81.6 161.5 78.4 161.1 72 159.2C46.1 151.1 27 132.1 19 106.5C14.3 91.4 15.5 68.6 21.6 55.1C22.9 52.1 23.9 49.5 23.7 49.4C23.5 49.2 22 50.5 20.3 52.3Z" fill="black"/>
<path d="M144.6 64.2C145 64.9 147.2 68.1 149.3 71.3C157.4 83.2 162 98.7 162 113.9C162 124.9 160.6 132.4 156.9 142.2C142 180.9 99.5 200.9 60.3 187.8C54.5 185.9 50.4 185 50.8 185.7C52 187.8 63.2 196.1 68.5 198.7C91 210.2 116.3 210.6 138.9 199.8L145.2 196.8L151.5 199.9C155 201.6 161.2 203.9 165.2 205C173.5 207.4 191.3 208.7 197.5 207.3L201.5 206.4L195.2 203C187.1 198.7 178.6 189.6 173.7 179.9L169.8 172.4L173.4 165.8C175.4 162.2 178.2 154.8 179.5 149.5C186.5 122.1 178.8 93.7 159.4 74.5C151.7 67 142.4 60.5 144.6 64.2Z" fill="black"/>
</svg>
