<svg width="1440" height="1074" viewBox="0 0 1440 1074" fill="none" xmlns="http://www.w3.org/2000/svg">
<path d="M1675.58 -312.219C1813.66 -242.629 1809.21 -58.9571 1874.17 131.48C1937.54 321.858 2070.33 519.003 1997.72 665.834C1926.65 813.763 1650.2 911.379 1368.41 946.476C1086.68 980.536 801.19 952.137 510.798 889.279C221.945 827.517 -71.8143 731.295 -148.152 586.129C-222.908 441.023 -81.7812 245.877 89.2858 130.793C260.396 14.672 463.07 -22.3633 617.498 -79.9094C770.344 -137.515 876.525 -215.572 1067.5 -275.898C1260.09 -337.201 1537.51 -381.81 1675.58 -312.219Z" fill="#ADF2D1"/>
<path d="M1462.62 -306.852C1597.67 -230.408 1585.63 -47.1497 1642.65 146.349C1698.09 339.709 1822.59 543.309 1743.99 686.346C1666.88 830.556 1386.67 914.203 1103.73 935.129C820.877 955.02 536.862 912.33 249.37 834.97C-36.6299 758.782 -326.107 647.924 -396.364 499.079C-465.044 350.373 -315.996 162.509 -140.348 56.1256C35.3847 -51.2912 239.38 -78.1212 396.026 -127.861C551.096 -177.739 660.394 -250.389 853.659 -301.072C1048.59 -352.651 1327.57 -383.297 1462.62 -306.852Z" fill="#7F73EF"/>
<path d="M1488.19 -262.645C1619.49 -178.628 1598.88 3.70163 1646.77 200.182C1693.08 396.435 1807.87 606.838 1722.68 745.219C1638.92 884.855 1355.17 952.47 1071.63 957.291C788.218 961.085 506.58 902.314 223.093 808.722C-58.9585 716.385 -342.859 589.227 -406.053 436.589C-467.678 284.179 -310.032 105.033 -129.637 8.77144C50.8924 -88.5174 255.872 -103.721 414.639 -144.494C571.838 -185.495 684.392 -251.838 879.774 -291.473C1076.86 -331.907 1356.9 -346.661 1488.19 -262.645Z" fill="#0D9BFC"/>
</svg>
