<?xml version="1.0" encoding="UTF-8" standalone="no"?>
<svg
   width="51.847485"
   height="51.997856"
   viewBox="0 0 51.847485 51.997856"
   fill="#ffffff"
   version="1.1"
   id="svg1"
      xmlns="http://www.w3.org/2000/svg"
   xmlns:svg="http://www.w3.org/2000/svg">
    <g
     id="a"
     clip-path="url(#clip0_93_351)"
     transform="translate(-9.8014215e-4,-9.776894e-4)">
    <path
       id="Vector"
       d="m 15.9279,36.2334 c 0.1897,0.109 0.3794,0.2181 0.5691,0.319 C 10.8271,30.4381 9.55186,21.1011 13.9748,13.5248 19.2774,4.44216 30.8028,1.25981 39.9795,6.22719 38.7124,4.85813 37.2233,3.65061 35.5284,2.66118 26.2629,-2.75852 14.3662,0.367296 8.95461,9.6357 3.543,18.9081 6.66244,30.8137 15.9279,36.2294 Z"
       fill="#ffffff" />
    <path
       id="Vector_2"
       d="m 15.6778,15.9356 c -0.113,0.1898 -0.2179,0.3796 -0.3228,0.5694 6.1259,-5.658 15.46,-6.90586 23.0144,-2.4594 9.0597,5.3308 12.2074,16.8729 7.2195,26.0444 1.3721,-1.2641 2.5828,-2.7503 3.5755,-4.4424 C 54.6042,26.3913 51.5131,14.4777 42.2637,9.03375 33.0143,3.58982 21.1096,6.68333 15.6698,15.9396 Z"
       fill="#ffffff" />
    <path
       id="Vector_3"
       d="m 36.2063,35.9749 c 0.1089,-0.1898 0.2179,-0.3797 0.3188,-0.5695 -6.1098,5.6742 -15.4398,6.9503 -23.0104,2.5241 C 4.43884,32.6229 1.25887,21.0889 6.22253,11.9053 4.8545,13.1734 3.64788,14.6636 2.65919,16.3598 -2.75645,25.6282 0.367022,37.5378 9.62849,42.9534 18.894,48.3691 30.7906,45.2473 36.2023,35.9749 Z"
       fill="#ffffff" />
    <path
       id="Vector_4"
       d="m 42.5057,42.9454 c 0.1413,-0.2221 0.2825,-0.4442 0.4157,-0.6704 5.4116,-9.2724 2.2922,-21.178 -6.9733,-26.5937 -0.1897,-0.109 -0.3794,-0.218 -0.569,-0.319 5.6698,6.1143 6.945,15.4514 2.5221,23.0277 -5.3026,9.0826 -16.828,12.2649 -26.0047,7.2976 1.2671,1.369 2.7562,2.5765 4.4511,3.566 6.3681,3.7235 13.975,3.4125 19.8708,-0.1575 7.8168,4.515 14.3301,2.415 14.3301,2.415 -4.9152,-1.4983 -7.159,-6.0578 -8.0428,-8.5657 z"
       fill="#ffffff" />
  </g>
  <defs
     id="defs1">
    <clipPath
       id="clip0_93_351">
      <rect
         width="246"
         height="52"
         fill="#ffffff"
         id="rect1"
         x="0"
         y="0" />
    </clipPath>
  </defs>
</svg>
