<svg width="716" height="682" viewBox="0 0 716 682" fill="none" xmlns="http://www.w3.org/2000/svg">
<g clip-path="url(#clip0_84_914)" filter="url(#filter0_f_84_914)">
<path d="M294.577 51.2417C210.516 75.2611 153.677 132.85 130.344 217.641C123.762 241.95 123.762 292.882 130.344 319.506C140.515 359.732 166.541 403.719 195.558 430.053C212.311 445.391 240.131 465.07 240.131 461.597C240.131 460.729 235.345 453.494 229.661 445.97C214.105 425.713 195.857 386.355 190.772 362.625C169.831 264.233 215.003 165.551 303.551 116.933C361.885 84.811 430.39 79.3126 495.904 101.596C509.066 106.226 520.135 109.409 520.733 108.83C522.528 107.094 494.408 85.6791 475.861 74.9717C437.869 52.3993 403.766 43.7176 355.304 44.007C326.286 44.007 314.62 45.4539 294.577 51.2417Z" fill="url(#paint0_radial_84_914)"/>
<path d="M403.348 122.206C399.974 122.772 387.707 125.599 375.747 127.86C334.038 136.624 284.356 164.612 257.062 194.579C242.341 210.693 230.074 226.525 230.074 229.069C230.074 229.917 241.114 223.698 254.608 215.499C297.237 189.208 351.212 175.072 398.748 177.899C501.486 184.119 582.756 243.205 615.264 335.367C622.624 356.853 623.544 363.638 623.851 397.562C623.851 433.183 622.931 437.424 613.73 462.585C608.21 477.285 602.997 491.421 602.383 493.682C599.623 501.598 627.224 471.914 637.651 456.083C661.879 418.483 672 384.841 672 341.021C672 306.531 668.319 289.003 654.212 256.492C629.064 197.406 568.035 147.084 499.952 128.991C477.871 123.054 418.069 118.814 403.348 122.206Z" fill="url(#paint1_radial_84_914)"/>
<path d="M103.387 195.235C88.5154 210.181 79.5921 222.871 67.397 246.56C23.3758 331.444 42.7094 435.505 114.988 500.649C160.496 541.822 211.656 560.999 275.308 560.999C330.632 560.999 380.9 543.797 422.244 511.084C440.686 496.419 474.296 458.912 474.296 452.99C474.296 451.862 465.968 456.374 455.855 463.142C431.762 479.217 412.726 488.241 385.064 496.701C366.028 502.059 356.51 503.187 321.114 503.187C285.719 503.187 276.201 502.059 257.164 496.701C180.127 473.858 123.316 420.277 99.5207 348.083C85.5409 305.5 89.1103 241.202 107.254 203.131C111.121 194.67 114.095 187.338 113.5 187.056C112.906 186.492 108.444 190.158 103.387 195.235Z" fill="url(#paint2_radial_84_914)"/>
<path d="M477.522 223.09C478.725 225.111 485.345 234.352 491.664 243.593C516.038 277.958 529.88 322.72 529.88 366.615C529.88 398.381 525.668 420.039 514.534 448.34C469.698 560.099 341.81 617.855 223.853 580.025C206.4 574.538 194.062 571.939 195.266 573.96C198.877 580.025 232.579 603.994 248.527 611.502C316.233 644.712 392.363 645.867 460.37 614.679L479.327 606.015L498.285 614.967C508.816 619.877 527.473 626.519 539.51 629.695C564.485 636.626 618.048 640.38 636.704 636.337L648.741 633.738L629.783 623.92C605.409 611.502 579.832 585.223 565.087 557.211L553.351 535.552L564.184 516.493C570.203 506.096 578.628 484.727 582.54 469.421C603.604 390.295 580.434 308.281 522.057 252.834C498.886 231.176 470.902 212.405 477.522 223.09Z" fill="url(#paint3_radial_84_914)"/>
</g>
<defs>
<filter id="filter0_f_84_914" x="0" y="0" width="716" height="682" filterUnits="userSpaceOnUse" color-interpolation-filters="sRGB">
<feFlood flood-opacity="0" result="BackgroundImageFix"/>
<feBlend mode="normal" in="SourceGraphic" in2="BackgroundImageFix" result="shape"/>
<feGaussianBlur stdDeviation="22" result="effect1_foregroundBlur_84_914"/>
</filter>
<radialGradient id="paint0_radial_84_914" cx="0" cy="0" r="1" gradientUnits="userSpaceOnUse" gradientTransform="translate(125.408 44) rotate(46.591) scale(575.388 1213.97)">
<stop stop-color="#F2FAFF"/>
<stop offset="1" stop-color="#F3FDF8"/>
</radialGradient>
<radialGradient id="paint1_radial_84_914" cx="0" cy="0" r="1" gradientUnits="userSpaceOnUse" gradientTransform="translate(230.074 121) rotate(40.2411) scale(578.943 1206.51)">
<stop stop-color="#F2FAFF"/>
<stop offset="1" stop-color="#F3FDF8"/>
</radialGradient>
<radialGradient id="paint2_radial_84_914" cx="0" cy="0" r="1" gradientUnits="userSpaceOnUse" gradientTransform="translate(44 186.999) rotate(40.9961) scale(570.115 1192.95)">
<stop stop-color="#F2FAFF"/>
<stop offset="1" stop-color="#F3FDF8"/>
</radialGradient>
<radialGradient id="paint3_radial_84_914" cx="0" cy="0" r="1" gradientUnits="userSpaceOnUse" gradientTransform="translate(195.185 220.001) rotate(42.6639) scale(616.795 1299.01)">
<stop stop-color="#F2FAFF"/>
<stop offset="1" stop-color="#F3FDF8"/>
</radialGradient>
<clipPath id="clip0_84_914">
<rect width="628" height="594" fill="white" transform="translate(44 44)"/>
</clipPath>
</defs>
</svg>
