<svg width="1440" height="895" viewBox="0 0 1440 895" fill="none" xmlns="http://www.w3.org/2000/svg">
<path d="M57.0761 465.046C-39.4702 493.057 -36.4437 544.569 -81.9366 602.207C-126.324 659.732 -219.231 723.382 -168.543 760.365C-118.931 797.751 74.276 808.469 271.235 801.238C468.164 793.716 667.739 768.358 870.759 732.987C1072.7 698.018 1278.09 653.036 1331.52 607.47C1383.84 562.017 1285.28 515.577 1165.75 493.529C1046.19 471.192 904.53 473.069 796.607 466.231C689.788 459.28 615.599 443.727 482.133 438.327C347.531 432.749 153.623 437.034 57.0761 465.046Z" fill="#ADF2D1"/>
<path d="M1007.12 406.392C957.156 381.486 962.708 329.686 942.544 273.35C922.968 217.09 877.677 156.294 907.842 117.493C937.457 78.323 1042.53 61.1483 1148.26 61.8639C1253.95 62.8713 1359.71 81.6923 1466.57 110.449C1572.88 138.837 1680.29 177.16 1705.65 221.117C1730.43 264.997 1673.71 314.88 1607.53 340.979C1541.32 367.369 1465.02 370.19 1406.27 380.638C1348.1 391.162 1306.88 409.236 1234.45 419.089C1161.4 429.158 1057.09 431.298 1007.12 406.392Z" fill="#7F73EF"/>
<path d="M1371.84 835.321C1499.26 790.484 1499.21 671.462 1562.59 548.184C1624.54 424.941 1722.98 392.361 1659.97 297.083C1598.39 201.098 1368.55 63.7703 1112.36 40.5061C856.199 17.9139 602.083 14.432 335.915 54.6247C71.1733 94.1096 -198.794 155.914 -271.569 249.836C-342.901 343.723 -218.468 470.434 -64.988 545.322C88.5085 620.882 272.512 645.256 412.074 682.83C550.193 720.44 645.313 771.216 818.135 810.659C992.418 850.739 1244.42 880.158 1371.84 835.321Z" fill="#0D9BFC"/>
</svg>
